<?xml version="1.0" standalone="no"?>
<!DOCTYPE svg PUBLIC "-//W3C//DTD SVG 20010904//EN"
 "http://www.w3.org/TR/2001/REC-SVG-20010904/DTD/svg10.dtd">
<svg version="1.0" xmlns="http://www.w3.org/2000/svg"
 width="1500.000000pt" height="1500.000000pt" viewBox="0 0 1500.000000 1500.000000"
 preserveAspectRatio="xMidYMid meet">
<metadata>
Created by potrace 1.16, written by Peter Selinger 2001-2019
</metadata>
<g transform="translate(0.000000,1500.000000) scale(0.100000,-0.100000)"
fill="#000000" stroke="none">
<path d="M11430 14764 c-14 -2 -65 -9 -115 -15 -494 -60 -1010 -277 -1425
-600 -114 -89 -316 -282 -415 -399 -314 -370 -533 -818 -630 -1288 -78 -378
-78 -791 0 -1177 66 -325 199 -666 363 -930 l50 -80 -126 -83 c-646 -423
-1236 -679 -1652 -717 -365 -33 -1055 242 -1758 702 -79 51 -141 96 -139 101
3 4 23 38 46 75 63 103 163 308 215 440 89 225 152 482 182 743 20 175 15 586
-10 737 -106 647 -381 1194 -825 1638 -442 441 -1006 725 -1627 819 -180 27
-501 37 -683 21 -677 -60 -1285 -336 -1764 -800 -498 -484 -791 -1079 -872
-1771 -20 -164 -19 -498 0 -665 27 -233 90 -489 171 -698 61 -158 189 -407
281 -547 363 -550 863 -942 1473 -1154 817 -284 1718 -197 2454 238 l75 44 81
-125 c389 -598 631 -1127 701 -1531 24 -143 24 -221 -1 -364 -31 -182 -96
-387 -193 -613 -37 -86 -182 -379 -225 -455 -73 -129 -196 -331 -278 -457
l-93 -142 -64 38 c-93 57 -293 155 -405 200 -919 366 -1971 241 -2772 -329
-142 -102 -271 -213 -405 -351 -427 -439 -694 -982 -792 -1609 -14 -93 -18
-174 -17 -415 0 -330 12 -436 74 -691 268 -1089 1141 -1928 2235 -2149 369
-75 808 -75 1178 1 870 177 1613 747 2013 1544 154 307 249 625 289 966 20
168 20 500 0 668 -49 421 -186 823 -398 1173 l-54 89 147 96 c711 463 1394
736 1760 703 415 -38 1007 -295 1652 -717 l126 -83 -50 -80 c-65 -105 -187
-355 -231 -475 -89 -239 -144 -467 -172 -706 -19 -166 -20 -500 0 -664 74
-636 357 -1233 800 -1689 483 -497 1089 -792 1790 -871 134 -15 491 -12 635 5
810 95 1507 494 1995 1143 253 336 430 731 518 1158 47 224 52 284 52 599 0
283 -2 309 -28 457 -109 616 -384 1151 -811 1580 -818 822 -2064 1078 -3148
647 -108 -43 -312 -143 -399 -195 -31 -19 -61 -34 -67 -34 -22 0 -284 421
-414 666 -194 364 -312 665 -374 954 -25 116 -25 324 0 440 91 424 324 926
692 1488 l94 143 43 -26 c649 -395 1438 -518 2190 -341 393 93 788 285 1127
546 115 89 381 353 474 470 352 445 563 973 617 1543 17 181 7 523 -21 701
-138 904 -679 1675 -1485 2119 -285 157 -613 267 -965 323 -75 12 -185 17
-385 19 -154 2 -291 2 -305 -1z m456 -274 c355 -28 652 -110 969 -265 1125
-552 1700 -1815 1380 -3032 -134 -511 -443 -996 -851 -1334 -707 -587 -1646
-769 -2509 -485 -222 74 -570 241 -563 272 7 28 233 312 243 304 27 -22 192
-107 290 -149 467 -204 1026 -237 1526 -93 371 108 690 298 978 582 96 95 108
104 154 111 49 8 121 48 171 94 74 68 5 157 -354 456 -371 308 -442 352 -897
549 l-42 19 34 63 c50 92 69 187 62 317 -6 125 -29 208 -85 300 -89 147 -241
290 -377 356 -210 101 -479 81 -647 -48 l-47 -36 -78 71 c-140 126 -381 315
-536 419 -84 56 -156 105 -160 109 -5 4 29 40 75 80 481 418 1139 534 1736
306 124 -48 200 -87 327 -171 330 -217 556 -512 699 -909 3 -10 9 -17 12 -14
10 10 -68 224 -120 332 -383 785 -1294 1180 -2150 930 -251 -72 -535 -232
-718 -402 l-47 -44 -103 55 c-214 114 -331 134 -444 77 -78 -39 -124 -83 -124
-119 0 -68 110 -182 427 -443 302 -249 388 -303 733 -458 123 -55 228 -104
232 -108 8 -9 -205 -383 -309 -542 -42 -63 -106 -153 -143 -200 -102 -128
-380 -392 -669 -635 l-94 -79 -24 30 c-30 38 -142 257 -182 357 -43 107 -96
294 -116 402 -23 131 -26 147 -31 142 -10 -10 29 -247 61 -372 43 -172 92
-302 175 -463 l69 -132 -67 -53 c-117 -93 -262 -200 -266 -196 -19 21 -110
186 -166 301 -116 241 -198 518 -236 798 -21 151 -24 490 -6 630 67 508 258
960 572 1349 534 663 1396 1037 2236 971z m-8341 -39 c580 -101 1042 -338
1445 -741 222 -221 369 -426 505 -705 85 -173 132 -297 180 -470 135 -494 120
-1005 -45 -1505 -67 -203 -126 -333 -243 -532 l-39 -68 -152 116 c-83 63 -219
171 -303 240 l-152 125 35 62 c40 70 94 184 94 198 0 6 30 7 78 2 42 -4 131
-8 197 -7 99 0 130 4 177 23 67 26 122 82 162 163 26 53 27 58 12 86 -20 39
-135 98 -289 147 -195 64 -549 163 -637 179 -117 22 -297 36 -470 36 l-145 0
-75 133 c-184 325 -282 465 -385 549 -149 121 -332 164 -532 122 -145 -30
-256 -96 -390 -232 l-84 -85 -152 46 c-372 113 -689 176 -1037 207 -69 6 -126
13 -128 14 -1 2 14 45 34 97 115 298 311 580 551 794 329 293 719 471 1163
531 160 21 441 15 610 -15 599 -104 1129 -453 1455 -958 33 -51 64 -93 69 -93
4 0 2 10 -6 23 -8 12 -34 56 -58 97 -90 155 -263 364 -408 493 -822 729 -2037
759 -2899 70 -180 -143 -321 -294 -454 -488 -102 -147 -247 -437 -275 -548 -4
-17 -21 -37 -43 -51 -46 -29 -94 -84 -121 -136 -64 -124 7 -168 524 -319 393
-116 465 -128 804 -138 l232 -6 0 -66 c0 -154 61 -292 180 -411 89 -90 202
-166 480 -325 428 -245 554 -340 822 -627 l109 -117 -80 -41 c-118 -59 -216
-96 -343 -129 -159 -41 -260 -54 -438 -53 -457 2 -871 173 -1208 499 -58 56
-108 101 -110 99 -5 -5 123 -149 184 -207 269 -256 653 -432 1034 -474 91 -10
360 -7 440 5 189 27 387 86 548 162 61 29 64 29 83 12 54 -49 479 -584 479
-603 0 -22 -309 -175 -480 -239 -319 -119 -634 -169 -990 -159 -279 8 -499 47
-760 134 -389 129 -727 339 -1020 632 -225 225 -369 428 -510 716 -125 256
-197 489 -241 780 -28 184 -31 501 -5 685 81 594 340 1124 751 1535 413 412
941 670 1535 750 161 21 578 14 735 -14z m485 -3149 c30 -36 144 -155 253
-265 l197 -200 -36 -43 -35 -44 -73 77 c-151 160 -289 332 -393 488 -59 90
-59 86 -11 69 32 -11 58 -33 98 -82z m518 -73 c139 -26 133 -17 78 -126 l-31
-62 -115 110 c-100 96 -111 110 -85 105 17 -2 85 -15 153 -27z m7672 -95 c302
-260 672 -512 953 -650 l57 -28 -62 -64 c-649 -661 -1636 -828 -2460 -416 -54
27 -98 51 -98 54 0 19 297 355 474 538 146 150 249 235 416 345 126 82 559
335 575 336 6 0 71 -52 145 -115z m-740 62 c0 -2 -35 -30 -77 -62 -267 -199
-580 -500 -861 -826 -74 -87 -138 -158 -141 -158 -3 0 -26 18 -50 39 -54 46
-63 28 115 223 275 300 631 587 914 737 100 53 100 53 100 47z m-6785 -542
c87 -74 242 -196 385 -303 69 -52 129 -97 134 -102 9 -8 -60 -99 -76 -99 -26
0 -401 292 -543 423 l-70 64 39 47 c43 53 32 55 131 -30z m5623 -524 l43 -38
-122 -161 c-67 -89 -125 -161 -129 -161 -4 0 -28 16 -53 36 l-47 37 47 66 c82
117 197 261 208 261 5 -1 29 -18 53 -40z m-4810 -78 c179 -121 548 -342 837
-502 83 -45 155 -87 160 -92 11 -10 -77 21 -265 95 -132 51 -410 179 -520 239
-213 116 -350 200 -343 211 11 20 66 87 70 87 2 0 30 -17 61 -38z m4450 -508
c2 -2 -9 -22 -26 -46 -115 -169 -340 -541 -541 -898 -92 -162 -92 -158 -11 55
110 287 262 597 432 883 l49 82 47 -37 c26 -21 49 -38 50 -39z m-2248 -529
c604 -132 1054 -592 1166 -1190 26 -138 26 -392 0 -530 -113 -602 -566 -1062
-1176 -1192 -121 -26 -449 -26 -570 0 -611 130 -1058 584 -1177 1192 -24 125
-24 405 0 530 91 466 379 851 792 1057 145 73 281 117 440 144 108 18 422 12
525 -11z m-2229 -2466 c-77 -208 -115 -298 -205 -484 -121 -249 -291 -555
-309 -555 -5 0 -28 16 -53 36 l-43 36 38 56 c133 199 352 563 522 869 46 83
85 150 87 149 1 -2 -15 -50 -37 -107z m-1963 -698 c242 -37 447 -95 672 -193
140 -61 330 -164 330 -179 0 -6 -48 -73 -106 -150 l-106 -139 -42 26 c-80 49
-242 127 -351 169 -226 88 -472 137 -740 150 -123 6 -144 10 -170 30 -49 36
-72 45 -151 61 -89 17 -108 10 -131 -44 -24 -56 -28 -284 -9 -604 22 -379 47
-505 170 -856 25 -74 46 -137 46 -142 0 -5 -50 -39 -111 -76 -223 -134 -336
-236 -403 -364 -92 -175 -88 -418 10 -600 95 -175 304 -358 463 -406 l58 -17
6 -178 c7 -187 27 -406 53 -574 9 -55 18 -118 21 -139 l6 -39 -94 7 c-267 19
-585 136 -819 302 -136 96 -339 303 -426 434 -129 194 -221 413 -266 635 -26
129 -36 419 -18 549 25 190 85 386 166 548 25 50 44 94 42 100 -6 17 -107
-174 -154 -289 -136 -337 -163 -748 -73 -1108 174 -700 762 -1237 1484 -1355
66 -11 138 -20 161 -20 l40 0 36 -134 c76 -281 162 -377 343 -380 l70 -1 20
40 c26 53 31 232 16 534 -22 421 -40 528 -152 866 -38 115 -69 213 -69 217 0
4 17 16 38 27 73 37 165 115 225 190 79 99 119 164 267 421 216 378 323 524
538 731 140 136 335 310 462 414 58 47 73 56 81 44 134 -200 247 -485 298
-749 115 -601 -34 -1222 -411 -1714 -37 -49 -68 -93 -68 -99 0 -13 -4 -18 87
93 246 298 404 647 474 1050 30 167 32 496 5 670 -22 144 -66 321 -110 444
-39 107 -134 311 -165 355 -12 16 -21 33 -21 38 0 10 298 238 304 232 19 -21
110 -185 166 -301 116 -241 199 -520 236 -798 21 -153 23 -481 5 -625 -60
-475 -231 -900 -513 -1278 -111 -148 -372 -411 -511 -516 -198 -147 -393 -259
-608 -345 -612 -245 -1282 -256 -1895 -31 -129 47 -375 168 -489 240 -606 384
-1032 997 -1175 1691 -78 377 -72 782 17 1144 247 1015 1067 1789 2093 1975
74 14 178 29 230 34 144 15 463 5 618 -18z m8547 0 c1197 -181 2094 -1101
2246 -2306 18 -145 16 -463 -5 -615 -81 -597 -341 -1127 -755 -1540 -212 -211
-423 -362 -696 -496 -263 -129 -530 -210 -825 -250 -171 -24 -502 -24 -665 0
-563 81 -1062 313 -1450 675 -455 425 -732 953 -826 1576 -26 166 -30 489 -10
650 47 375 169 734 357 1052 25 43 48 80 50 82 5 6 315 -230 320 -244 3 -6
-13 -41 -34 -76 -147 -241 -253 -544 -298 -844 -21 -143 -23 -431 -5 -575 100
-773 574 -1433 1263 -1760 76 -36 140 -72 143 -81 21 -61 157 -179 206 -179
29 0 77 48 113 113 70 126 272 657 311 819 28 117 50 265 65 448 5 69 12 144
15 167 l6 41 92 -5 c180 -11 332 40 482 160 135 108 245 257 287 387 28 90 36
261 14 353 -35 151 -137 288 -295 399 -20 14 -20 16 38 160 76 187 158 433
207 620 45 171 31 164 164 85 550 -327 872 -934 830 -1566 -34 -504 -274 -956
-674 -1269 -16 -12 -27 -25 -24 -27 8 -9 155 104 240 184 269 252 455 593 528
966 27 142 38 404 21 541 -61 490 -292 913 -671 1226 -62 51 -211 150 -283
188 -26 14 -47 32 -47 40 0 8 7 56 15 105 19 112 19 287 1 338 -8 20 -26 53
-41 73 -31 40 -138 114 -166 114 -64 0 -143 -143 -274 -490 -165 -438 -194
-561 -221 -948 -3 -56 -10 -105 -15 -107 -18 -12 -355 201 -500 316 -130 104
-393 380 -642 676 l-77 92 67 37 c104 57 134 76 130 81 -3 2 -51 -19 -108 -48
l-103 -51 -23 28 c-78 96 -233 304 -233 313 0 15 189 118 325 177 269 117 536
185 829 214 139 13 451 4 601 -19z m-3475 -284 c132 -51 410 -179 520 -239
126 -69 349 -199 354 -206 2 -4 -13 -27 -34 -52 -33 -38 -42 -43 -57 -34 -10
6 -89 57 -175 112 -176 113 -489 298 -713 422 -82 45 -154 87 -160 92 -11 10
77 -21 265 -95z m-3808 -259 l38 -33 -78 -106 c-109 -149 -142 -189 -155 -189
-7 1 -31 18 -54 38 l-42 37 112 151 c122 165 115 160 179 102z m-1357 10 c207
-22 453 -93 650 -188 55 -27 106 -53 114 -58 16 -11 0 -32 -209 -267 -260
-293 -399 -425 -577 -549 l-82 -57 -5 33 c-3 18 -8 80 -11 138 -14 237 -69
578 -138 842 l-33 127 95 -5 c53 -3 141 -10 196 -16z m6416 -451 c75 -56 151
-114 169 -128 l33 -27 -42 -50 -43 -50 -168 126 c-93 70 -169 130 -169 133 -1
8 71 99 78 99 3 0 67 -46 142 -103z m-5385 41 c24 -18 43 -38 41 -45 -4 -23
-260 -293 -387 -408 -171 -155 -286 -247 -445 -353 -115 -77 -315 -191 -315
-179 0 3 35 31 78 63 262 196 606 527 864 831 56 67 107 123 112 123 5 0 29
-15 52 -32z m5679 -273 c188 -160 432 -411 573 -588 146 -183 294 -411 339
-522 l12 -30 -22 29 c-279 365 -647 741 -1011 1031 l-37 30 37 48 c20 26 41
47 47 47 5 0 33 -20 62 -45z m-172 -322 c286 -240 565 -505 667 -633 91 -114
214 -305 345 -535 116 -205 201 -338 248 -392 34 -38 36 -25 -38 -203 -147
-353 -258 -754 -320 -1167 l-6 -41 -92 43 c-363 169 -680 454 -896 805 -195
318 -295 658 -308 1045 -9 274 29 511 124 775 50 138 165 380 181 380 2 0 45
-35 95 -77z"/>
<path d="M7265 8719 c-386 -50 -741 -309 -909 -664 -120 -252 -140 -574 -54
-853 93 -303 349 -584 649 -714 545 -235 1178 -24 1480 494 168 288 197 680
74 1000 -63 163 -152 295 -285 422 -255 243 -606 359 -955 315z m355 -345 c99
-25 237 -94 320 -161 175 -139 286 -342 308 -561 36 -361 -143 -688 -463 -842
-141 -68 -212 -84 -370 -84 -160 0 -234 17 -370 83 -261 128 -432 371 -464
659 -48 438 245 832 684 918 87 17 265 11 355 -12z"/>
<path d="M7302 8250 c-343 -62 -582 -344 -582 -690 0 -269 147 -508 384 -624
107 -52 184 -70 311 -70 127 0 204 18 311 70 237 116 384 356 384 624 0 320
-213 597 -519 675 -79 20 -218 27 -289 15z m140 -127 c16 -42 22 -173 9 -232
-40 -188 -204 -342 -396 -371 -70 -11 -115 -8 -193 12 l-44 11 7 65 c23 211
144 389 328 484 54 27 172 57 230 57 43 1 49 -2 59 -26z m487 -789 l31 -6 -32
-61 c-18 -33 -60 -88 -93 -121 -65 -65 -167 -132 -184 -121 -6 3 -11 32 -11
63 0 155 141 275 289 246z"/>
</g>
</svg>
